# xmcd
#
# Track frame offsets: 
#        187
#        27395
#        48530
#        77377
#        90105
#        109472
#        130587
#        148257
#        167195
#        201892
#        215225
#        226005
#        254672
#
# Disc length: 3670 seconds
#
# Revision: 1
# Processed by: cddbd v1.5.1PL2 Copyright (c) Steve Scherf et al.
# Submitted via: ExactAudioCopy v0.95b3
#
DISCID=b60e540d
DTITLE=Little Brother Montgomery - Goodbye Mister Blues
DYEAR=2000
DGENRE=Blues
TTITLE0=Goodbye Mr. Blues
TTITLE1=South Rampart Street Parade
TTITLE2=Tishomingo Blues
TTITLE3=I Must Get Mine In Front
TTITLE4=Struttin' With Some Barbecue
TTITLE5=The Boy In The Boat
TTITLE6=Riverside Blues
TTITLE7=Old Maid Blues
TTITLE8=Saturday Night Function
TTITLE9=Glitsy's Blues
TTITLE10=Wailing Blues
TTITLE11=Goodbye Mr. Blues: (alternate take)
TTITLE12=Panama Rag
EXTD=Delmark, DE-663
EXTT0=
EXTT1=
EXTT2=
EXTT3=
EXTT4=
EXTT5=
EXTT6=
EXTT7=
EXTT8=
EXTT9=
EXTT10=
EXTT11=
EXTT12=
PLAYORDER=
